<svg width="197" height="17" viewBox="0 0 197 17" fill="none" xmlns="http://www.w3.org/2000/svg">
<path d="M86.7053 16.9476C87.599 16.9476 88.3689 16.804 89.0153 16.5167C89.6616 16.2295 90.2002 15.8944 90.631 15.5114C91.0619 15.1284 91.401 14.7414 91.6484 14.3504C91.8957 13.9594 92.0673 13.6602 92.163 13.4528V16.7561H93.4317V7.94719C93.4317 7.30886 93.2841 6.73835 92.9888 6.23567C92.6936 5.73299 92.2947 5.3061 91.792 4.95502C91.2893 4.60394 90.6988 4.33265 90.0206 4.14115C89.3424 3.94966 88.6203 3.85391 87.8543 3.85391C87.184 3.85391 86.5377 3.92971 85.9154 4.08131C85.293 4.23291 84.7424 4.46032 84.2637 4.76352C83.7849 5.06673 83.394 5.44574 83.0908 5.90055C82.7876 6.35536 82.604 6.89395 82.5402 7.51632L83.8328 7.49238C83.9126 7.01363 84.0882 6.61468 84.3594 6.29551C84.6307 5.97635 84.9499 5.72102 85.3169 5.52952C85.684 5.33802 86.0909 5.20238 86.5377 5.12258C86.9846 5.04279 87.4314 5.0029 87.8782 5.0029C88.4527 5.0029 88.9953 5.06673 89.506 5.1944C90.0166 5.32206 90.4714 5.51356 90.8704 5.76889C91.2693 6.02422 91.5845 6.34738 91.8159 6.73835C92.0473 7.12933 92.163 7.58813 92.163 8.11475V9.21587L87.8543 9.2398C86.7532 9.2398 85.8276 9.35949 85.0776 9.59886C84.3275 9.83823 83.7331 10.1494 83.2942 10.5324C82.8554 10.9154 82.5442 11.3503 82.3607 11.837C82.1772 12.3237 82.0934 12.8224 82.1093 13.3331C82.1413 13.9235 82.2809 14.4422 82.5282 14.889C82.7756 15.3358 83.1067 15.7109 83.5216 16.0141C83.9365 16.3173 84.4153 16.5487 84.9579 16.7082C85.5005 16.8678 86.0829 16.9476 86.7053 16.9476ZM86.7771 15.7747C86.3462 15.7747 85.9393 15.7228 85.5563 15.6191C85.1733 15.5154 84.8302 15.3598 84.527 15.1523C84.2238 14.9449 83.9725 14.6895 83.773 14.3863C83.5735 14.0831 83.4578 13.74 83.4259 13.357C83.394 13.0219 83.4418 12.6748 83.5695 12.3157C83.6972 11.9567 83.9326 11.6295 84.2757 11.3343C84.6188 11.0391 85.0975 10.7917 85.7119 10.5923C86.3263 10.3928 87.0963 10.293 88.0219 10.293H92.163C92.163 11.0431 92.0194 11.7532 91.7321 12.4235C91.4449 13.0937 91.0539 13.6762 90.5592 14.1709C90.0645 14.6656 89.49 15.0566 88.8357 15.3438C88.1814 15.6311 87.4952 15.7747 86.7771 15.7747ZM101.618 16.9476C102.288 16.9476 102.931 16.8479 103.545 16.6484C104.16 16.4489 104.722 16.1697 105.233 15.8106C105.743 15.4515 106.194 15.0247 106.585 14.5299C106.976 14.0352 107.291 13.4927 107.531 12.9022L106.238 12.6868C105.823 13.5804 105.213 14.3065 104.407 14.8651C103.601 15.4236 102.671 15.7029 101.618 15.7029C100.9 15.7029 100.226 15.5672 99.5955 15.2959C98.9652 15.0247 98.4106 14.6496 97.9319 14.1709C97.4532 13.6921 97.0781 13.1296 96.8069 12.4833C96.5356 11.837 96.3999 11.1388 96.3999 10.3888C96.3999 9.65472 96.5356 8.96452 96.8069 8.31822C97.0781 7.67191 97.4452 7.10938 97.908 6.63064C98.3708 6.15189 98.9213 5.77288 99.5596 5.49361C100.198 5.21434 100.884 5.07471 101.618 5.07471C102.671 5.07471 103.601 5.35398 104.407 5.91252C105.213 6.47105 105.823 7.20513 106.238 8.11475L107.531 7.87538C107.291 7.28492 106.98 6.74633 106.597 6.25961C106.214 5.77288 105.767 5.34999 105.257 4.99093C104.746 4.63187 104.184 4.3526 103.569 4.15312C102.955 3.95365 102.304 3.85391 101.618 3.85391C100.709 3.85391 99.8628 4.02546 99.0809 4.36856C98.2989 4.71166 97.6127 5.17844 97.0223 5.76889C96.4318 6.35935 95.969 7.04954 95.6339 7.83947C95.2988 8.6294 95.1312 9.47917 95.1312 10.3888C95.1312 11.2665 95.2948 12.1043 95.6219 12.9022C95.9491 13.7001 96.4039 14.3983 96.9864 14.9967C97.5688 15.5952 98.255 16.0699 99.045 16.421C99.8349 16.7721 100.693 16.9476 101.618 16.9476ZM115.143 16.9476C115.813 16.9476 116.455 16.8479 117.07 16.6484C117.684 16.4489 118.247 16.1697 118.757 15.8106C119.268 15.4515 119.719 15.0247 120.11 14.5299C120.501 14.0352 120.816 13.4927 121.055 12.9022L119.763 12.6868C119.348 13.5804 118.737 14.3065 117.932 14.8651C117.126 15.4236 116.196 15.7029 115.143 15.7029C114.425 15.7029 113.75 15.5672 113.12 15.2959C112.49 15.0247 111.935 14.6496 111.456 14.1709C110.978 13.6921 110.603 13.1296 110.331 12.4833C110.06 11.837 109.924 11.1388 109.924 10.3888C109.924 9.65472 110.06 8.96452 110.331 8.31822C110.603 7.67191 110.97 7.10938 111.433 6.63064C111.895 6.15189 112.446 5.77288 113.084 5.49361C113.723 5.21434 114.409 5.07471 115.143 5.07471C116.196 5.07471 117.126 5.35398 117.932 5.91252C118.737 6.47105 119.348 7.20513 119.763 8.11475L121.055 7.87538C120.816 7.28492 120.505 6.74633 120.122 6.25961C119.739 5.77288 119.292 5.34999 118.781 4.99093C118.271 4.63187 117.708 4.3526 117.094 4.15312C116.479 3.95365 115.829 3.85391 115.143 3.85391C114.233 3.85391 113.387 4.02546 112.605 4.36856C111.824 4.71166 111.137 5.17844 110.547 5.76889C109.956 6.35935 109.494 7.04954 109.158 7.83947C108.823 8.6294 108.656 9.47917 108.656 10.3888C108.656 11.2665 108.819 12.1043 109.147 12.9022C109.474 13.7001 109.928 14.3983 110.511 14.9967C111.093 15.5952 111.78 16.0699 112.57 16.421C113.359 16.7721 114.217 16.9476 115.143 16.9476ZM128.667 16.9476C129.29 16.9476 129.896 16.8598 130.487 16.6843C131.077 16.5088 131.624 16.2654 132.126 15.9542C132.629 15.643 133.088 15.272 133.503 14.8411C133.918 14.4103 134.253 13.9315 134.508 13.4049L133.239 13.1895C132.777 13.9555 132.138 14.5698 131.324 15.0326C130.511 15.4954 129.625 15.7268 128.667 15.7268C127.981 15.7268 127.335 15.6071 126.728 15.3678C126.122 15.1284 125.587 14.7933 125.125 14.3624C124.662 13.9315 124.287 13.4169 124 12.8184C123.712 12.22 123.545 11.5617 123.497 10.8436H135.035C135.067 10.684 135.079 10.5045 135.071 10.305C135.063 10.1055 135.043 9.89409 135.011 9.67067C134.915 8.87276 134.692 8.11874 134.341 7.4086C133.989 6.69846 133.535 6.08008 132.976 5.55346C132.418 5.02683 131.771 4.61192 131.037 4.30872C130.303 4.00551 129.513 3.85391 128.667 3.85391C127.758 3.85391 126.912 4.02546 126.13 4.36856C125.348 4.71166 124.662 5.17844 124.071 5.76889C123.481 6.35935 123.018 7.04954 122.683 7.83947C122.348 8.6294 122.18 9.47917 122.18 10.3888C122.18 11.2984 122.348 12.1482 122.683 12.9381C123.018 13.728 123.477 14.4222 124.059 15.0207C124.642 15.6191 125.328 16.0899 126.118 16.433C126.908 16.7761 127.758 16.9476 128.667 16.9476ZM133.718 9.76642H123.497C123.561 9.11214 123.732 8.49775 124.012 7.92325C124.291 7.34875 124.658 6.85006 125.113 6.42717C125.568 6.00428 126.098 5.66915 126.705 5.4218C127.311 5.17445 127.957 5.05077 128.643 5.05077C129.33 5.05077 129.968 5.17445 130.558 5.4218C131.149 5.66915 131.668 6.00428 132.114 6.42717C132.561 6.85006 132.924 7.34875 133.204 7.92325C133.483 8.49775 133.654 9.11214 133.718 9.76642ZM138.266 16.7561V0H136.95V16.7561H138.266ZM146.74 16.9476C147.362 16.9476 147.969 16.8598 148.559 16.6843C149.15 16.5088 149.696 16.2654 150.199 15.9542C150.702 15.643 151.161 15.272 151.575 14.8411C151.99 14.4103 152.325 13.9315 152.581 13.4049L151.312 13.1895C150.849 13.9555 150.211 14.5698 149.397 15.0326C148.583 15.4954 147.698 15.7268 146.74 15.7268C146.054 15.7268 145.408 15.6071 144.801 15.3678C144.195 15.1284 143.66 14.7933 143.197 14.3624C142.735 13.9315 142.36 13.4169 142.072 12.8184C141.785 12.22 141.617 11.5617 141.57 10.8436H153.107C153.139 10.684 153.151 10.5045 153.143 10.305C153.135 10.1055 153.115 9.89409 153.083 9.67067C152.988 8.87276 152.764 8.11874 152.413 7.4086C152.062 6.69846 151.607 6.08008 151.049 5.55346C150.49 5.02683 149.844 4.61192 149.11 4.30872C148.376 4.00551 147.586 3.85391 146.74 3.85391C145.83 3.85391 144.985 4.02546 144.203 4.36856C143.421 4.71166 142.735 5.17844 142.144 5.76889C141.554 6.35935 141.091 7.04954 140.756 7.83947C140.421 8.6294 140.253 9.47917 140.253 10.3888C140.253 11.2984 140.421 12.1482 140.756 12.9381C141.091 13.728 141.55 14.4222 142.132 15.0207C142.715 15.6191 143.401 16.0899 144.191 16.433C144.981 16.7761 145.83 16.9476 146.74 16.9476ZM151.791 9.76642H141.57C141.633 9.11214 141.805 8.49775 142.084 7.92325C142.364 7.34875 142.731 6.85006 143.185 6.42717C143.64 6.00428 144.171 5.66915 144.777 5.4218C145.384 5.17445 146.03 5.05077 146.716 5.05077C147.402 5.05077 148.041 5.17445 148.631 5.4218C149.222 5.66915 149.74 6.00428 150.187 6.42717C150.634 6.85006 150.997 7.34875 151.276 7.92325C151.555 8.49775 151.727 9.11214 151.791 9.76642ZM155.932 16.7561V10.4127C155.932 9.4712 156.072 8.65334 156.351 7.95916C156.63 7.26497 157.017 6.69846 157.512 6.25961C158.007 5.82076 158.589 5.52553 159.259 5.37393C159.93 5.22232 160.656 5.23429 161.438 5.40983V4.02147C160.065 3.79805 158.904 3.95365 157.955 4.48825C157.005 5.02285 156.331 5.8407 155.932 6.94182V4.06934H154.615V16.7561H155.932ZM166.991 16.9476C167.885 16.9476 168.655 16.804 169.301 16.5167C169.947 16.2295 170.486 15.8944 170.917 15.5114C171.348 15.1284 171.687 14.7414 171.934 14.3504C172.181 13.9594 172.353 13.6602 172.449 13.4528V16.7561H173.717V7.94719C173.717 7.30886 173.57 6.73835 173.275 6.23567C172.979 5.73299 172.58 5.3061 172.078 4.95502C171.575 4.60394 170.985 4.33265 170.306 4.14115C169.628 3.94966 168.906 3.85391 168.14 3.85391C167.47 3.85391 166.823 3.92971 166.201 4.08131C165.579 4.23291 165.028 4.46032 164.549 4.76352C164.071 5.06673 163.68 5.44574 163.377 5.90055C163.073 6.35536 162.89 6.89395 162.826 7.51632L164.119 7.49238C164.198 7.01363 164.374 6.61468 164.645 6.29551C164.916 5.97635 165.236 5.72102 165.603 5.52952C165.97 5.33802 166.377 5.20238 166.823 5.12258C167.27 5.04279 167.717 5.0029 168.164 5.0029C168.738 5.0029 169.281 5.06673 169.792 5.1944C170.302 5.32206 170.757 5.51356 171.156 5.76889C171.555 6.02422 171.87 6.34738 172.102 6.73835C172.333 7.12933 172.449 7.58813 172.449 8.11475V9.21587L168.14 9.2398C167.039 9.2398 166.113 9.35949 165.363 9.59886C164.613 9.83823 164.019 10.1494 163.58 10.5324C163.141 10.9154 162.83 11.3503 162.646 11.837C162.463 12.3237 162.379 12.8224 162.395 13.3331C162.427 13.9235 162.567 14.4422 162.814 14.889C163.061 15.3358 163.392 15.7109 163.807 16.0141C164.222 16.3173 164.701 16.5487 165.244 16.7082C165.786 16.8678 166.369 16.9476 166.991 16.9476ZM167.063 15.7747C166.632 15.7747 166.225 15.7228 165.842 15.6191C165.459 15.5154 165.116 15.3598 164.813 15.1523C164.51 14.9449 164.258 14.6895 164.059 14.3863C163.859 14.0831 163.744 13.74 163.712 13.357C163.68 13.0219 163.728 12.6748 163.855 12.3157C163.983 11.9567 164.218 11.6295 164.561 11.3343C164.905 11.0391 165.383 10.7917 165.998 10.5923C166.612 10.3928 167.382 10.293 168.308 10.293H172.449C172.449 11.0431 172.305 11.7532 172.018 12.4235C171.731 13.0937 171.34 13.6762 170.845 14.1709C170.35 14.6656 169.776 15.0566 169.121 15.3438C168.467 15.6311 167.781 15.7747 167.063 15.7747ZM178.936 16.4449C179.877 17.0833 181.282 17.171 183.149 16.7082V15.4396C181.697 15.8385 180.615 15.8425 179.905 15.4515C179.195 15.0606 178.84 14.2188 178.84 12.9261V5.24227H183.197V4.06934H178.84V0.311185H177.547V4.06934H174.675V5.24227H177.547L177.523 12.9501C177.523 14.6417 177.994 15.8066 178.936 16.4449ZM190.426 16.9476C191.048 16.9476 191.654 16.8598 192.245 16.6843C192.835 16.5088 193.382 16.2654 193.885 15.9542C194.387 15.643 194.846 15.272 195.261 14.8411C195.676 14.4103 196.011 13.9315 196.266 13.4049L194.998 13.1895C194.535 13.9555 193.897 14.5698 193.083 15.0326C192.269 15.4954 191.383 15.7268 190.426 15.7268C189.739 15.7268 189.093 15.6071 188.487 15.3678C187.88 15.1284 187.346 14.7933 186.883 14.3624C186.42 13.9315 186.045 13.4169 185.758 12.8184C185.471 12.22 185.303 11.5617 185.255 10.8436H196.793C196.825 10.684 196.837 10.5045 196.829 10.305C196.821 10.1055 196.801 9.89409 196.769 9.67067C196.673 8.87276 196.45 8.11874 196.099 7.4086C195.748 6.69846 195.293 6.08008 194.734 5.55346C194.176 5.02683 193.53 4.61192 192.795 4.30872C192.061 4.00551 191.271 3.85391 190.426 3.85391C189.516 3.85391 188.67 4.02546 187.888 4.36856C187.106 4.71166 186.42 5.17844 185.83 5.76889C185.239 6.35935 184.776 7.04954 184.441 7.83947C184.106 8.6294 183.939 9.47917 183.939 10.3888C183.939 11.2984 184.106 12.1482 184.441 12.9381C184.776 13.728 185.235 14.4222 185.818 15.0207C186.4 15.6191 187.086 16.0899 187.876 16.433C188.666 16.7761 189.516 16.9476 190.426 16.9476ZM195.476 9.76642H185.255C185.319 9.11214 185.491 8.49775 185.77 7.92325C186.049 7.34875 186.416 6.85006 186.871 6.42717C187.326 6.00428 187.856 5.66915 188.463 5.4218C189.069 5.17445 189.716 5.05077 190.402 5.05077C191.088 5.05077 191.726 5.17445 192.317 5.4218C192.907 5.66915 193.426 6.00428 193.873 6.42717C194.319 6.85006 194.683 7.34875 194.962 7.92325C195.241 8.49775 195.413 9.11214 195.476 9.76642Z" fill="black"/>
<path d="M6.5587 4.04343C7.81569 4.04343 8.93023 4.35338 9.9023 4.97328V4.31987H13.975V16.5086H9.9023V15.83C8.93023 16.4499 7.81569 16.7599 6.5587 16.7599C5.46931 16.7599 4.45952 16.4792 3.52935 15.918C2.59918 15.3567 1.86174 14.5902 1.31704 13.6185C0.772348 12.6467 0.5 11.5744 0.5 10.4016C0.5 9.2121 0.772348 8.13145 1.31704 7.15971C1.86174 6.18796 2.59918 5.42565 3.52935 4.87276C4.45952 4.31987 5.46931 4.04343 6.5587 4.04343ZM7.14801 7.63868C5.63706 7.63868 4.4122 8.86313 4.4122 10.3736C4.4122 11.884 5.63706 13.1084 7.14801 13.1084C8.65895 13.1084 9.88381 11.884 9.88381 10.3736C9.88381 8.86313 8.65895 7.63868 7.14801 7.63868ZM21.4903 16.785C22.5964 16.785 23.6104 16.563 24.5322 16.119C25.454 15.675 26.1956 15.0551 26.7571 14.2593C27.3185 13.4635 27.6412 12.5462 27.725 11.5074H23.8786C23.778 12.0603 23.5099 12.5043 23.0741 12.8394C22.6383 13.1745 22.1104 13.342 21.4903 13.342C20.6355 13.342 19.9568 13.0656 19.454 12.5127C18.9512 11.9598 18.6998 11.2561 18.6998 10.4016C18.6998 9.54718 18.9512 8.84769 19.454 8.30318C19.9568 7.75867 20.6355 7.48641 21.4903 7.48641C22.1104 7.48641 22.6383 7.65396 23.0741 7.98904C23.5099 8.32412 23.778 8.76811 23.8786 9.321H27.725C27.6412 8.28224 27.3185 7.36495 26.7571 6.56912C26.1956 5.7733 25.454 5.15339 24.5322 4.70941C23.6104 4.26542 22.5964 4.04343 21.4903 4.04343C20.2165 4.04343 19.0769 4.31568 18.0713 4.86019C17.0657 5.40471 16.2738 6.16283 15.6956 7.13458C15.1173 8.10632 14.8282 9.19534 14.8282 10.4016C14.8282 11.6247 15.1173 12.7221 15.6956 13.6938C16.2738 14.6656 17.0657 15.4237 18.0713 15.9682C19.0769 16.5127 20.2165 16.785 21.4903 16.785ZM35.0362 16.785C36.1424 16.785 37.1563 16.563 38.0781 16.119C38.9999 15.675 39.7416 15.0551 40.303 14.2593C40.8645 13.4635 41.1871 12.5462 41.2709 11.5074H37.4245C37.3239 12.0603 37.0558 12.5043 36.62 12.8394C36.1843 13.1745 35.6563 13.342 35.0362 13.342C34.1815 13.342 33.5027 13.0656 32.9999 12.5127C32.4971 11.9598 32.2457 11.2561 32.2457 10.4016C32.2457 9.54718 32.4971 8.84769 32.9999 8.30318C33.5027 7.75867 34.1815 7.48641 35.0362 7.48641C35.6563 7.48641 36.1843 7.65396 36.62 7.98904C37.0558 8.32412 37.3239 8.76811 37.4245 9.321H41.2709C41.1871 8.28224 40.8645 7.36495 40.303 6.56912C39.7416 5.7733 38.9999 5.15339 38.0781 4.70941C37.1563 4.26542 36.1424 4.04343 35.0362 4.04343C33.7625 4.04343 32.6228 4.31568 31.6172 4.86019C30.6116 5.40471 29.8197 6.16283 29.2415 7.13458C28.6633 8.10632 28.3742 9.19534 28.3742 10.4016C28.3742 11.6247 28.6633 12.7221 29.2415 13.6938C29.8197 14.6656 30.6116 15.4237 31.6172 15.9682C32.6228 16.5127 33.7625 16.785 35.0362 16.785ZM48.5822 16.785C50.0905 16.785 51.3852 16.4164 52.4663 15.6792C53.5236 14.9582 54.2001 13.9887 54.4958 12.7708C54.4971 12.7656 54.5035 12.7397 54.5232 12.6018C54.5429 12.4638 54.5389 12.3324 54.544 12.3101H50.6396C50.6354 12.3166 50.604 12.4159 50.5666 12.5183C50.5304 12.6177 50.4719 12.7202 50.4677 12.7264C50.2858 12.9927 50.0428 13.198 49.7386 13.342C49.4202 13.4928 49.0514 13.5682 48.6324 13.5682C47.895 13.5682 47.2958 13.3881 46.8349 13.0279C46.374 12.6676 46.0598 12.1943 45.8922 11.6079H54.544C54.6086 11.0495 54.6409 10.5636 54.6409 10.1503C54.6409 8.94403 54.3685 7.88014 53.8238 6.95866C53.2791 6.03718 52.5333 5.32093 51.5864 4.80993C50.6394 4.29893 49.5794 4.04343 48.4062 4.04343C47.1324 4.04343 46.0011 4.31568 45.0123 4.86019C44.0235 5.40471 43.2609 6.15864 42.7246 7.12201C42.1883 8.08538 41.9201 9.17859 41.9201 10.4016C41.9201 11.6247 42.1966 12.7221 42.7497 13.6938C43.3028 14.6656 44.0863 15.4237 45.1003 15.9682C46.1143 16.5127 47.2749 16.785 48.5822 16.785ZM45.8419 9.22047C46.0032 8.52694 46.3214 7.98398 46.7964 7.59159C47.2714 7.1992 47.8674 7.00301 48.5844 7.00301C49.2835 7.00301 49.8571 7.19464 50.3052 7.57791C50.7534 7.96117 51.0402 8.50869 51.1656 9.22047H45.8419ZM61.2674 16.8855C62.9434 16.8855 64.3135 16.5337 65.3778 15.83C66.442 15.1263 66.9742 14.1043 66.9742 12.764C66.9742 10.7702 65.7088 9.5388 63.178 9.06969L60.8903 8.69272C60.0523 8.54193 59.6333 8.2236 59.6333 7.73773C59.6333 7.48641 59.7632 7.27699 60.023 7.10944C60.2828 6.9419 60.6641 6.85813 61.1669 6.85813C61.7535 6.85813 62.2353 6.97122 62.6124 7.1974C62.9895 7.42359 63.1948 7.76286 63.2283 8.21522H66.8485C66.7647 6.74085 66.1697 5.66858 65.0635 4.99842C63.9574 4.32825 62.6501 3.99316 61.1417 3.99316C59.4993 3.99316 58.1836 4.35338 57.1948 5.07381C56.2059 5.79424 55.7115 6.79111 55.7115 8.06443C55.7115 9.10319 56.03 9.92834 56.6668 10.5399C57.3037 11.1514 58.1752 11.5493 59.2814 11.7336L61.7451 12.1608C62.1306 12.2279 62.4239 12.3368 62.625 12.4875C62.8261 12.6383 62.9267 12.8142 62.9267 13.0153C62.9267 13.2834 62.7716 13.4928 62.4616 13.6436C62.1515 13.7944 61.7283 13.8698 61.192 13.8698C60.5384 13.8698 60.0062 13.7441 59.5956 13.4928C59.185 13.2415 58.9378 12.8561 58.854 12.3368L55.2339 12.3116C55.3512 13.853 55.9587 15.0007 57.0565 15.7546C58.1543 16.5086 59.5579 16.8855 61.2674 16.8855ZM73.6259 16.8855C75.3019 16.8855 76.672 16.5337 77.7362 15.83C78.8005 15.1263 79.3326 14.1043 79.3326 12.764C79.3326 10.7702 78.0672 9.5388 75.5365 9.06969L73.2488 8.69272C72.4108 8.54193 71.9918 8.2236 71.9918 7.73773C71.9918 7.48641 72.1217 7.27699 72.3814 7.10944C72.6412 6.9419 73.0225 6.85813 73.5253 6.85813C74.1119 6.85813 74.5938 6.97122 74.9709 7.1974C75.3479 7.42359 75.5533 7.76286 75.5868 8.21522H79.2069C79.1231 6.74085 78.5281 5.66858 77.422 4.99842C76.3158 4.32825 75.0086 3.99316 73.5002 3.99316C71.8577 3.99316 70.542 4.35338 69.5532 5.07381C68.5644 5.79424 68.07 6.79111 68.07 8.06443C68.07 9.10319 68.3884 9.92834 69.0253 10.5399C69.6622 11.1514 70.5337 11.5493 71.6398 11.7336L74.1035 12.1608C74.489 12.2279 74.7823 12.3368 74.9834 12.4875C75.1845 12.6383 75.2851 12.8142 75.2851 13.0153C75.2851 13.2834 75.1301 13.4928 74.82 13.6436C74.51 13.7944 74.0868 13.8698 73.5505 13.8698C72.8968 13.8698 72.3647 13.7441 71.9541 13.4928C71.5435 13.2415 71.2962 12.8561 71.2124 12.3368L67.5923 12.3116C67.7096 13.853 68.3172 15.0007 69.4149 15.7546C70.5127 16.5086 71.9164 16.8855 73.6259 16.8855Z" fill="#1F1F1F"/>
<path d="M14.161 0.563232H1.15039V2.51483H14.161V0.563232Z" fill="#FCC55C"/>
</svg>
