<svg width="136" height="17" viewBox="0 0 136 17" fill="none" xmlns="http://www.w3.org/2000/svg">
<path d="M80.6454 16.0911C81.5425 16.701 82.8806 16.7848 84.6597 16.3426V15.1305C83.276 15.5117 82.2458 15.5155 81.5691 15.1419C80.8925 14.7684 80.5541 13.9641 80.5541 12.729V5.38742H84.7053V4.26674H80.5541V0.675986H79.3225V4.26674H76.5854V5.38742H79.3225L79.2997 12.7519C79.2997 14.3681 79.7482 15.4812 80.6454 16.0911ZM90.2706 16.5714C91.1221 16.5714 91.8558 16.4341 92.4716 16.1597C93.0874 15.8852 93.6006 15.565 94.0112 15.1991C94.4217 14.8332 94.7449 14.4634 94.9806 14.0898C95.2162 13.7163 95.3797 13.4304 95.4709 13.2322V16.3884H96.6798V7.97185C96.6798 7.36195 96.5391 6.81686 96.2578 6.33657C95.9765 5.85628 95.5964 5.44841 95.1174 5.11297C94.6384 4.77753 94.0758 4.51832 93.4296 4.33535C92.7833 4.15238 92.0953 4.0609 91.3654 4.0609C90.7268 4.0609 90.1109 4.13332 89.5179 4.27817C88.9249 4.42302 88.4003 4.6403 87.9441 4.93C87.4879 5.2197 87.1154 5.58182 86.8265 6.01637C86.5376 6.45092 86.3627 6.96552 86.3019 7.56017L87.5336 7.5373C87.6096 7.07988 87.7768 6.69869 88.0353 6.39375C88.2938 6.0888 88.598 5.84484 88.9477 5.66187C89.2974 5.4789 89.6852 5.3493 90.1109 5.27306C90.5367 5.19683 90.9624 5.15871 91.3882 5.15871C91.9356 5.15871 92.4526 5.2197 92.9392 5.34168C93.4258 5.46366 93.8591 5.64662 94.2393 5.89058C94.6194 6.13454 94.9197 6.4433 95.1402 6.81686C95.3607 7.19042 95.4709 7.62878 95.4709 8.13194V9.18401L91.3654 9.20688C90.3162 9.20688 89.4343 9.32124 88.7196 9.54995C88.0049 9.77866 87.4385 10.076 87.0204 10.4419C86.6022 10.8079 86.3057 11.2233 86.1308 11.6884C85.956 12.1534 85.8761 12.6299 85.8913 13.1178C85.9218 13.682 86.0548 14.1775 86.2905 14.6044C86.5262 15.0314 86.8417 15.3897 87.2371 15.6794C87.6324 15.9691 88.0886 16.1902 88.6056 16.3426C89.1226 16.4951 89.6776 16.5714 90.2706 16.5714ZM90.339 15.4507C89.9285 15.4507 89.5407 15.4011 89.1758 15.302C88.8108 15.2029 88.4839 15.0542 88.195 14.856C87.9061 14.6578 87.6666 14.4139 87.4765 14.1242C87.2865 13.8345 87.1762 13.5066 87.1458 13.1407C87.1154 12.8205 87.161 12.4889 87.2827 12.1458C87.4043 11.8027 87.6286 11.4902 87.9555 11.2081C88.2824 10.926 88.7386 10.6897 89.324 10.4991C89.9095 10.3085 90.6431 10.2132 91.5251 10.2132H95.4709C95.4709 10.9298 95.3341 11.6083 95.0604 12.2487C94.7867 12.8891 94.4141 13.4456 93.9428 13.9183C93.4714 14.391 92.924 14.7645 92.3005 15.039C91.6771 15.3134 91.0233 15.4507 90.339 15.4507ZM100.055 16.3884V0.378662H98.801V16.3884H100.055ZM108.13 16.5714C108.723 16.5714 109.301 16.4875 109.863 16.3198C110.426 16.1521 110.947 15.9195 111.426 15.6222C111.905 15.3249 112.342 14.9704 112.737 14.5587C113.132 14.147 113.452 13.6896 113.695 13.1864L112.486 12.9806C112.045 13.7125 111.437 14.2995 110.661 14.7417C109.886 15.1838 109.042 15.4049 108.13 15.4049C107.476 15.4049 106.86 15.2906 106.282 15.0619C105.704 14.8332 105.195 14.513 104.754 14.1013C104.313 13.6896 103.956 13.1979 103.682 12.6261C103.408 12.0543 103.249 11.4254 103.203 10.7392H114.197C114.227 10.5868 114.239 10.4152 114.231 10.2246C114.223 10.0341 114.204 9.83202 114.174 9.61856C114.083 8.85619 113.87 8.13576 113.535 7.45725C113.201 6.77874 112.767 6.18791 112.235 5.68474C111.703 5.18158 111.087 4.78515 110.388 4.49545C109.688 4.20575 108.936 4.0609 108.13 4.0609C107.263 4.0609 106.457 4.22481 105.712 4.55263C104.967 4.88044 104.313 5.32643 103.75 5.89058C103.188 6.45473 102.747 7.11418 102.428 7.86893C102.108 8.62367 101.949 9.43559 101.949 10.3047C101.949 11.1738 102.108 11.9857 102.428 12.7405C102.747 13.4952 103.184 14.1585 103.739 14.7302C104.294 15.302 104.948 15.7518 105.701 16.0796C106.453 16.4074 107.263 16.5714 108.13 16.5714ZM112.942 9.71005H103.203C103.264 9.0849 103.427 8.49788 103.693 7.94898C103.96 7.40007 104.309 6.92359 104.743 6.51954C105.176 6.11548 105.682 5.79529 106.259 5.55895C106.837 5.32262 107.453 5.20445 108.107 5.20445C108.761 5.20445 109.369 5.32262 109.932 5.55895C110.494 5.79529 110.988 6.11548 111.414 6.51954C111.84 6.92359 112.186 7.40007 112.452 7.94898C112.718 8.49788 112.881 9.0849 112.942 9.71005ZM116.888 16.3884V10.2132C116.888 9.48133 116.998 8.80664 117.219 8.18912C117.439 7.5716 117.747 7.04557 118.143 6.61102C118.538 6.17647 119.002 5.83722 119.534 5.59326C120.066 5.3493 120.644 5.22732 121.267 5.22732C121.8 5.22732 122.313 5.31881 122.807 5.50177C123.301 5.68474 123.738 5.9592 124.119 6.32513C124.499 6.69107 124.799 7.14468 125.019 7.68596C125.24 8.22724 125.35 8.86382 125.35 9.59569V16.3884H126.605V9.13827C126.605 8.33016 126.464 7.61353 126.183 6.98839C125.901 6.36325 125.521 5.8334 125.042 5.39886C124.563 4.96431 124.012 4.63268 123.389 4.40396C122.765 4.17525 122.119 4.0609 121.45 4.0609C120.887 4.0609 120.366 4.13714 119.888 4.28961C119.409 4.44208 118.975 4.64792 118.587 4.90713C118.2 5.16633 117.865 5.45984 117.584 5.78766C117.303 6.11548 117.071 6.46236 116.888 6.82829V4.26674H115.634V16.3884H116.888ZM131.44 16.0911C132.337 16.701 133.675 16.7848 135.454 16.3426V15.1305C134.071 15.5117 133.04 15.5155 132.364 15.1419C131.687 14.7684 131.349 13.9641 131.349 12.729V5.38742H135.5V4.26674H131.349V0.675986H130.117V4.26674H127.38V5.38742H130.117L130.094 12.7519C130.094 14.3681 130.543 15.4812 131.44 16.0911Z" fill="black"/>
<path d="M6.27301 4.0739C7.47073 4.0739 8.53271 4.37005 9.45894 4.96234V4.33803H13.3396V15.9838H9.45894V15.3355C8.53271 15.9277 7.47073 16.2239 6.27301 16.2239C5.23498 16.2239 4.27282 15.9558 3.3865 15.4195C2.50019 14.8832 1.79753 14.1509 1.27852 13.2224C0.759506 12.294 0.5 11.2694 0.5 10.1489C0.5 9.01234 0.759506 7.97983 1.27852 7.05137C1.79753 6.12291 2.50019 5.39455 3.3865 4.86629C4.27282 4.33803 5.23498 4.0739 6.27301 4.0739ZM6.83453 7.50901C5.39483 7.50901 4.22773 8.67891 4.22773 10.1221C4.22773 11.5652 5.39483 12.7351 6.83453 12.7351C8.27422 12.7351 9.44133 11.5652 9.44133 10.1221C9.44133 8.67891 8.27422 7.50901 6.83453 7.50901ZM20.5005 16.2479C21.5545 16.2479 22.5207 16.0358 23.399 15.6116C24.2773 15.1874 24.984 14.5951 25.519 13.8347C26.0539 13.0743 26.3613 12.1979 26.4412 11.2054H22.7762C22.6804 11.7337 22.4248 12.1579 22.0096 12.478C21.5944 12.7982 21.0914 12.9583 20.5005 12.9583C19.6861 12.9583 19.0393 12.6942 18.5602 12.1659C18.0811 11.6376 17.8416 10.9653 17.8416 10.1489C17.8416 9.33249 18.0811 8.66417 18.5602 8.14391C19.0393 7.62365 19.6861 7.36352 20.5005 7.36352C21.0914 7.36352 21.5944 7.5236 22.0096 7.84376C22.4248 8.16392 22.6804 8.58813 22.7762 9.11639H26.4412C26.3613 8.1239 26.0539 7.24747 25.519 6.48709C24.984 5.72672 24.2773 5.13443 23.399 4.71022C22.5207 4.28601 21.5545 4.0739 20.5005 4.0739C19.2868 4.0739 18.2009 4.33403 17.2427 4.85429C16.2845 5.37454 15.53 6.0989 14.979 7.02736C14.4281 7.95582 14.1526 8.99633 14.1526 10.1489C14.1526 11.3175 14.4281 12.366 14.979 13.2944C15.53 14.2229 16.2845 14.9473 17.2427 15.4675C18.2009 15.9878 19.2868 16.2479 20.5005 16.2479ZM33.4077 16.2479C34.4617 16.2479 35.4278 16.0358 36.3062 15.6116C37.1845 15.1874 37.8912 14.5951 38.4261 13.8347C38.9611 13.0743 39.2685 12.1979 39.3484 11.2054H35.6834C35.5875 11.7337 35.332 12.1579 34.9168 12.478C34.5016 12.7982 33.9986 12.9583 33.4077 12.9583C32.5932 12.9583 31.9465 12.6942 31.4674 12.1659C30.9883 11.6376 30.7488 10.9653 30.7488 10.1489C30.7488 9.33249 30.9883 8.66417 31.4674 8.14391C31.9465 7.62365 32.5932 7.36352 33.4077 7.36352C33.9986 7.36352 34.5016 7.5236 34.9168 7.84376C35.332 8.16392 35.5875 8.58813 35.6834 9.11639H39.3484C39.2685 8.1239 38.9611 7.24747 38.4261 6.48709C37.8912 5.72672 37.1845 5.13443 36.3062 4.71022C35.4278 4.28601 34.4617 4.0739 33.4077 4.0739C32.194 4.0739 31.1081 4.33403 30.1499 4.85429C29.1917 5.37454 28.4372 6.0989 27.8862 7.02736C27.3353 7.95582 27.0598 8.99633 27.0598 10.1489C27.0598 11.3175 27.3353 12.366 27.8862 13.2944C28.4372 14.2229 29.1917 14.9473 30.1499 15.4675C31.1081 15.9878 32.194 16.2479 33.4077 16.2479ZM46.3149 16.2479C47.7521 16.2479 48.9858 15.8957 50.0158 15.1914C51.0233 14.5025 51.6679 13.5762 51.9497 12.4126C51.9509 12.4075 51.957 12.3828 51.9758 12.251C51.9946 12.1192 51.9908 11.9936 51.9956 11.9724H48.2753C48.2713 11.9786 48.2413 12.0734 48.2058 12.1712C48.1713 12.2662 48.1155 12.3642 48.1115 12.3701C47.9382 12.6246 47.7067 12.8206 47.4168 12.9583C47.1134 13.1024 46.762 13.1744 46.3628 13.1744C45.6601 13.1744 45.0892 13.0023 44.6501 12.6581C44.2109 12.314 43.9115 11.8617 43.7518 11.3015H51.9956C52.0571 10.7679 52.0879 10.3036 52.0879 9.90878C52.0879 8.75621 51.8284 7.73971 51.3094 6.85928C50.7904 5.97884 50.0797 5.2945 49.1774 4.80626C48.2752 4.31802 47.2651 4.0739 46.1472 4.0739C44.9335 4.0739 43.8556 4.33403 42.9134 4.85429C41.9712 5.37454 41.2445 6.0949 40.7335 7.01535C40.2225 7.93581 39.967 8.98032 39.967 10.1489C39.967 11.3175 40.2305 12.366 40.7575 13.2944C41.2845 14.2229 42.031 14.9473 42.9972 15.4675C43.9634 15.9878 45.0693 16.2479 46.3149 16.2479ZM43.7039 9.02034C43.8576 8.3577 44.1607 7.83893 44.6134 7.46402C45.066 7.08911 45.6339 6.90165 46.3171 6.90165C46.9832 6.90165 47.5297 7.08475 47.9567 7.45094C48.3837 7.81713 48.657 8.34027 48.7765 9.02034H43.7039ZM58.402 16.344C59.9989 16.344 61.3045 16.0078 62.3185 15.3355C63.3326 14.6631 63.8396 13.6866 63.8396 12.406C63.8396 10.5011 62.6339 9.32449 60.2225 8.87627L58.0427 8.51609C57.2442 8.37202 56.8449 8.06787 56.8449 7.60364C56.8449 7.36352 56.9687 7.16343 57.2162 7.00335C57.4638 6.84327 57.8271 6.76323 58.3062 6.76323C58.8651 6.76323 59.3242 6.87128 59.6835 7.08739C60.0429 7.30349 60.2385 7.62765 60.2704 8.05987H63.7199C63.64 6.65117 63.0731 5.62667 62.0191 4.98635C60.9651 4.34604 59.7195 4.02588 58.2822 4.02588C56.7172 4.02588 55.4636 4.37005 54.5214 5.05839C53.5792 5.74673 53.1081 6.6992 53.1081 7.9158C53.1081 8.90829 53.4115 9.69668 54.0183 10.281C54.6252 10.8653 55.4556 11.2454 56.5096 11.4215L58.8571 11.8297C59.2244 11.8938 59.5039 11.9978 59.6955 12.1419C59.8872 12.286 59.983 12.454 59.983 12.6461C59.983 12.9023 59.8353 13.1024 59.5398 13.2464C59.2444 13.3905 58.8411 13.4625 58.3301 13.4625C57.7073 13.4625 57.2003 13.3425 56.809 13.1024C56.4178 12.8622 56.1822 12.4941 56.1024 11.9978L52.6529 11.9738C52.7647 13.4465 53.3436 14.5431 54.3896 15.2634C55.4356 15.9838 56.7731 16.344 58.402 16.344ZM70.1777 16.344C71.7746 16.344 73.0802 16.0078 74.0942 15.3355C75.1083 14.6631 75.6153 13.6866 75.6153 12.406C75.6153 10.5011 74.4096 9.32449 71.9982 8.87627L69.8184 8.51609C69.0199 8.37202 68.6206 8.06787 68.6206 7.60364C68.6206 7.36352 68.7444 7.16343 68.9919 7.00335C69.2395 6.84327 69.6028 6.76323 70.0819 6.76323C70.6408 6.76323 71.0999 6.87128 71.4592 7.08739C71.8186 7.30349 72.0142 7.62765 72.0461 8.05987H75.4956C75.4157 6.65117 74.8488 5.62667 73.7948 4.98635C72.7408 4.34604 71.4952 4.02588 70.0579 4.02588C68.4929 4.02588 67.2393 4.37005 66.2971 5.05839C65.3549 5.74673 64.8838 6.6992 64.8838 7.9158C64.8838 8.90829 65.1872 9.69668 65.794 10.281C66.4009 10.8653 67.2313 11.2454 68.2853 11.4215L70.6328 11.8297C71.0001 11.8938 71.2796 11.9978 71.4712 12.1419C71.6629 12.286 71.7587 12.454 71.7587 12.6461C71.7587 12.9023 71.611 13.1024 71.3155 13.2464C71.0201 13.3905 70.6168 13.4625 70.1058 13.4625C69.483 13.4625 68.976 13.3425 68.5847 13.1024C68.1935 12.8622 67.9579 12.4941 67.8781 11.9978L64.4286 11.9738C64.5404 13.4465 65.1193 14.5431 66.1653 15.2634C67.2113 15.9838 68.5488 16.344 70.1777 16.344Z" fill="#1F1F1F"/>
<path d="M13.5172 0.748535H1.12012V2.6132H13.5172V0.748535Z" fill="#99C2DE"/>
</svg>
