<svg width="125" height="17" viewBox="0 0 125 17" fill="none" xmlns="http://www.w3.org/2000/svg">
<path d="M6.29679 3.89804C7.49944 3.89804 8.5658 4.19522 9.49585 4.78958V4.16309H13.3924V15.8494H9.49585V15.1988C8.5658 15.7932 7.49944 16.0904 6.29679 16.0904C5.25449 16.0904 4.28836 15.8213 3.39839 15.2832C2.50843 14.745 1.80287 14.0101 1.28172 13.0784C0.760575 12.1467 0.5 11.1187 0.5 9.9942C0.5 8.85368 0.760575 7.81757 1.28172 6.88588C1.80287 5.95419 2.50843 5.2233 3.39839 4.69319C4.28836 4.16309 5.25449 3.89804 6.29679 3.89804ZM6.86062 7.34511C5.41499 7.34511 4.24308 8.51909 4.24308 9.96727C4.24308 11.4154 5.41499 12.5894 6.86062 12.5894C8.30625 12.5894 9.47816 11.4154 9.47816 9.96727C9.47816 8.51909 8.30625 7.34511 6.86062 7.34511ZM20.5829 16.1144C21.6412 16.1144 22.6114 15.9016 23.4933 15.4759C24.3753 15.0502 25.0848 14.4559 25.622 13.6929C26.1592 12.9298 26.4679 12.0503 26.5481 11.0544H22.8679C22.7717 11.5845 22.5152 12.0102 22.0982 12.3315C21.6813 12.6527 21.1762 12.8134 20.5829 12.8134C19.7651 12.8134 19.1157 12.5483 18.6346 12.0182C18.1535 11.4881 17.913 10.8134 17.913 9.9942C17.913 9.17495 18.1535 8.5043 18.6346 7.98223C19.1157 7.46016 19.7651 7.19912 20.5829 7.19912C21.1762 7.19912 21.6813 7.35976 22.0982 7.68103C22.5152 8.00231 22.7717 8.42799 22.8679 8.95809H26.5481C26.4679 7.96215 26.1592 7.08266 25.622 6.31964C25.0848 5.55662 24.3753 4.96226 23.4933 4.53657C22.6114 4.11089 21.6412 3.89804 20.5829 3.89804C19.3642 3.89804 18.2738 4.15908 17.3117 4.68115C16.3496 5.20322 15.5919 5.9301 15.0387 6.86179C14.4854 7.79348 14.2088 8.83762 14.2088 9.9942C14.2088 11.1668 14.4854 12.219 15.0387 13.1507C15.5919 14.0824 16.3496 14.8093 17.3117 15.3313C18.2738 15.8534 19.3642 16.1144 20.5829 16.1144ZM33.5433 16.1144C34.6016 16.1144 35.5717 15.9016 36.4537 15.4759C37.3356 15.0502 38.0452 14.4559 38.5824 13.6929C39.1196 12.9298 39.4282 12.0503 39.5084 11.0544H35.8283C35.7321 11.5845 35.4755 12.0102 35.0586 12.3315C34.6417 12.6527 34.1366 12.8134 33.5433 12.8134C32.7255 12.8134 32.076 12.5483 31.595 12.0182C31.1139 11.4881 30.8734 10.8134 30.8734 9.9942C30.8734 9.17495 31.1139 8.5043 31.595 7.98223C32.076 7.46016 32.7255 7.19912 33.5433 7.19912C34.1366 7.19912 34.6417 7.35976 35.0586 7.68103C35.4755 8.00231 35.7321 8.42799 35.8283 8.95809H39.5084C39.4282 7.96215 39.1196 7.08266 38.5824 6.31964C38.0452 5.55662 37.3356 4.96226 36.4537 4.53657C35.5717 4.11089 34.6016 3.89804 33.5433 3.89804C32.3246 3.89804 31.2342 4.15908 30.272 4.68115C29.3099 5.20322 28.5522 5.9301 27.999 6.86179C27.4458 7.79348 27.1692 8.83762 27.1692 9.9942C27.1692 11.1668 27.4458 12.219 27.999 13.1507C28.5522 14.0824 29.3099 14.8093 30.272 15.3313C31.2342 15.8534 32.3246 16.1144 33.5433 16.1144ZM46.5036 16.1144C47.9468 16.1144 49.1855 15.761 50.2198 15.0542C51.2314 14.3629 51.8787 13.4334 52.1617 12.2657C52.1629 12.2607 52.169 12.2359 52.1879 12.1036C52.2067 11.9714 52.2029 11.8454 52.2077 11.824H48.4721C48.4681 11.8302 48.438 11.9254 48.4023 12.0236C48.3676 12.1189 48.3116 12.2172 48.3076 12.2231C48.1336 12.4785 47.9011 12.6753 47.6101 12.8134C47.3054 12.9579 46.9526 13.0302 46.5517 13.0302C45.8462 13.0302 45.2729 12.8575 44.8319 12.5122C44.391 12.1668 44.0903 11.713 43.9299 11.1508H52.2077C52.2695 10.6153 52.3004 10.1495 52.3004 9.75324C52.3004 8.59666 52.0398 7.57662 51.5187 6.69312C50.9975 5.80962 50.284 5.1229 49.378 4.63296C48.472 4.14301 47.4577 3.89804 46.3352 3.89804C45.1166 3.89804 44.0342 4.15908 43.0881 4.68115C42.142 5.20322 41.4124 5.92608 40.8992 6.84974C40.3861 7.7734 40.1296 8.82155 40.1296 9.9942C40.1296 11.1668 40.3941 12.219 40.9233 13.1507C41.4525 14.0824 42.2021 14.8093 43.1723 15.3313C44.1424 15.8534 45.2529 16.1144 46.5036 16.1144ZM43.8818 8.86171C44.0362 8.19677 44.3406 7.67619 44.7951 7.29997C45.2496 6.92375 45.8198 6.73564 46.5058 6.73564C47.1747 6.73564 47.7235 6.91938 48.1522 7.28684C48.581 7.65431 48.8554 8.17927 48.9754 8.86171H43.8818ZM58.6405 16.2108C60.244 16.2108 61.5549 15.8735 62.5732 15.1988C63.5914 14.5241 64.1006 13.5443 64.1006 12.2592C64.1006 10.3476 62.8899 9.16692 60.4685 8.71714L58.2797 8.35571C57.4779 8.21113 57.0771 7.90592 57.0771 7.44008C57.0771 7.19912 57.2013 6.99833 57.4499 6.83769C57.6984 6.67706 58.0632 6.59674 58.5443 6.59674C59.1055 6.59674 59.5666 6.70517 59.9274 6.92203C60.2881 7.13889 60.4846 7.46417 60.5167 7.89789H63.9803C63.9001 6.48429 63.3309 5.45622 62.2725 4.81367C61.2142 4.17113 59.9634 3.84985 58.5202 3.84985C56.9488 3.84985 55.69 4.19522 54.7439 4.88596C53.7978 5.5767 53.3248 6.53248 53.3248 7.75332C53.3248 8.74927 53.6295 9.5404 54.2388 10.1267C54.8481 10.713 55.682 11.0946 56.7403 11.2713L59.0975 11.6809C59.4663 11.7451 59.747 11.8495 59.9394 11.9941C60.1318 12.1387 60.228 12.3074 60.228 12.5001C60.228 12.7571 60.0797 12.9579 59.783 13.1025C59.4864 13.2471 59.0815 13.3194 58.5683 13.3194C57.943 13.3194 57.4338 13.1989 57.041 12.9579C56.6481 12.717 56.4116 12.3475 56.3314 11.8496L52.8678 11.8255C52.98 13.3033 53.5613 14.4037 54.6116 15.1265C55.6619 15.8494 57.0049 16.2108 58.6405 16.2108ZM70.4647 16.2108C72.0683 16.2108 73.3791 15.8735 74.3974 15.1988C75.4156 14.5241 75.9248 13.5443 75.9248 12.2592C75.9248 10.3476 74.7141 9.16692 72.2927 8.71714L70.1039 8.35571C69.3022 8.21113 68.9013 7.90592 68.9013 7.44008C68.9013 7.19912 69.0255 6.99833 69.2741 6.83769C69.5226 6.67706 69.8874 6.59674 70.3685 6.59674C70.9297 6.59674 71.3908 6.70517 71.7516 6.92203C72.1124 7.13889 72.3088 7.46417 72.3409 7.89789H75.8045C75.7243 6.48429 75.1551 5.45622 74.0967 4.81367C73.0384 4.17113 71.7876 3.84985 70.3445 3.84985C68.773 3.84985 67.5142 4.19522 66.5681 4.88596C65.622 5.5767 65.149 6.53248 65.149 7.75332C65.149 8.74927 65.4537 9.5404 66.063 10.1267C66.6723 10.713 67.5062 11.0946 68.5645 11.2713L70.9217 11.6809C71.2905 11.7451 71.5712 11.8495 71.7636 11.9941C71.956 12.1387 72.0522 12.3074 72.0522 12.5001C72.0522 12.7571 71.9039 12.9579 71.6072 13.1025C71.3106 13.2471 70.9057 13.3194 70.3926 13.3194C69.7672 13.3194 69.2581 13.1989 68.8652 12.9579C68.4723 12.717 68.2358 12.3475 68.1556 11.8496L64.692 11.8255C64.8042 13.3033 65.3855 14.4037 66.4358 15.1265C67.4861 15.8494 68.8291 16.2108 70.4647 16.2108Z" fill="#1F1F1F"/>
<path d="M13.5703 0.561035H1.12207V2.43219H13.5703V0.561035Z" fill="#1544D6"/>
<path d="M84.8191 16.4388C85.4604 16.4388 86.075 16.3432 86.6628 16.1519C87.2506 15.9607 87.7888 15.6929 88.2774 15.3486C88.766 15.0044 89.1973 14.5951 89.5714 14.1208C89.9455 13.6465 90.247 13.1262 90.4761 12.5601L89.2393 12.3536C88.8423 13.2104 88.2583 13.9066 87.4873 14.4421C86.7162 14.9776 85.8268 15.2454 84.8191 15.2454C84.1321 15.2454 83.487 15.1153 82.8839 14.8552C82.2808 14.5951 81.7502 14.2355 81.2921 13.7765C80.8341 13.3175 80.4753 12.7782 80.2157 12.1585C79.9562 11.5388 79.8264 10.8694 79.8264 10.1503C79.8264 9.44648 79.9562 8.78474 80.2157 8.16507C80.4753 7.5454 80.8265 7.00606 81.2692 6.54705C81.712 6.08803 82.2388 5.72465 82.8495 5.45689C83.4602 5.18913 84.1168 5.05525 84.8191 5.05525C85.8268 5.05525 86.7162 5.32301 87.4873 5.85853C88.2583 6.39404 88.8423 7.09786 89.2393 7.96999L90.4761 7.74048C90.247 7.17436 89.9493 6.65797 89.5829 6.19131C89.2164 5.72465 88.7889 5.31918 88.3003 4.97492C87.8117 4.63066 87.2735 4.36291 86.6857 4.17165C86.0979 3.98039 85.4757 3.88477 84.8191 3.88477C83.9488 3.88477 83.1396 4.04925 82.3915 4.37821C81.6433 4.70717 80.9868 5.1547 80.4219 5.72082C79.8569 6.28694 79.4141 6.94868 79.0935 7.70606C78.7729 8.46343 78.6125 9.27818 78.6125 10.1503C78.6125 10.9918 78.769 11.7951 79.082 12.5601C79.3951 13.3252 79.8302 13.9945 80.3875 14.5683C80.9448 15.1421 81.6013 15.5973 82.3571 15.9339C83.1129 16.2705 83.9336 16.4388 84.8191 16.4388ZM97.7362 16.4388C98.6065 16.4388 99.4157 16.2743 100.164 15.9454C100.912 15.6164 101.569 15.165 102.133 14.5913C102.698 14.0175 103.141 13.3481 103.462 12.5831C103.782 11.8181 103.943 11.0071 103.943 10.1503C103.943 9.29348 103.782 8.48638 103.462 7.72901C103.141 6.97163 102.702 6.30989 102.145 5.74377C101.588 5.17765 100.931 4.72629 100.175 4.38968C99.4195 4.05307 98.6065 3.88477 97.7362 3.88477C96.8659 3.88477 96.0528 4.04925 95.297 4.37821C94.5413 4.70717 93.8847 5.1547 93.3274 5.72082C92.7701 6.28694 92.3312 6.95251 92.0105 7.71753C91.6899 8.48255 91.5296 9.29348 91.5296 10.1503C91.5296 11.0224 91.6899 11.8372 92.0105 12.5946C92.3312 13.3519 92.7701 14.0175 93.3274 14.5913C93.8847 15.165 94.5413 15.6164 95.297 15.9454C96.0528 16.2743 96.8659 16.4388 97.7362 16.4388ZM97.7362 15.2454C97.0491 15.2454 96.404 15.1153 95.8009 14.8552C95.1978 14.5951 94.6672 14.2355 94.2092 13.7765C93.7511 13.3175 93.3923 12.7782 93.1328 12.1585C92.8732 11.5388 92.7434 10.8694 92.7434 10.1503C92.7434 9.44648 92.8732 8.78474 93.1328 8.16507C93.3923 7.5454 93.7473 7.00606 94.1977 6.54705C94.6481 6.08803 95.1749 5.72465 95.778 5.45689C96.3811 5.18913 97.0338 5.05525 97.7362 5.05525C98.4232 5.05525 99.0721 5.18913 99.6829 5.45689C100.294 5.72465 100.824 6.08803 101.275 6.54705C101.725 7.00606 102.08 7.5454 102.34 8.16507C102.599 8.78474 102.729 9.44648 102.729 10.1503C102.729 10.8541 102.599 11.5159 102.34 12.1355C102.08 12.7552 101.725 13.2946 101.275 13.7536C100.824 14.2126 100.297 14.576 99.6943 14.8437C99.0912 15.1115 98.4385 15.2454 97.7362 15.2454ZM106.691 16.2552V10.1733C106.691 9.27053 106.825 8.48638 107.092 7.82081C107.359 7.15524 107.729 6.61207 108.203 6.19131C108.676 5.77055 109.233 5.48749 109.874 5.34213C110.516 5.19678 111.21 5.20826 111.959 5.37656V4.04542C110.646 3.83121 109.535 3.98039 108.626 4.49296C107.718 5.00552 107.073 5.78967 106.691 6.8454V4.09132H105.431V16.2552H106.691ZM118.371 16.4388C118.967 16.4388 119.547 16.3546 120.112 16.1863C120.677 16.018 121.2 15.7847 121.681 15.4863C122.162 15.188 122.601 14.8322 122.998 14.4191C123.395 14.006 123.715 13.547 123.96 13.0421L122.746 12.8355C122.303 13.57 121.692 14.159 120.913 14.6027C120.135 15.0465 119.287 15.2683 118.371 15.2683C117.715 15.2683 117.096 15.1536 116.516 14.924C115.936 14.6945 115.425 14.3732 114.982 13.9601C114.539 13.547 114.18 13.0536 113.905 12.4798C113.631 11.906 113.47 11.2749 113.424 10.5864H124.463C124.494 10.4334 124.505 10.2612 124.498 10.07C124.49 9.87872 124.471 9.67599 124.44 9.46178C124.349 8.69676 124.135 7.97381 123.799 7.29294C123.463 6.61207 123.028 6.01918 122.494 5.51426C121.959 5.00935 121.341 4.61154 120.639 4.32083C119.936 4.03012 119.181 3.88477 118.371 3.88477C117.501 3.88477 116.692 4.04925 115.944 4.37821C115.196 4.70717 114.539 5.1547 113.974 5.72082C113.409 6.28694 112.966 6.94868 112.646 7.70606C112.325 8.46343 112.165 9.27818 112.165 10.1503C112.165 11.0224 112.325 11.8372 112.646 12.5946C112.966 13.3519 113.405 14.0175 113.963 14.5913C114.52 15.165 115.176 15.6164 115.932 15.9454C116.688 16.2743 117.501 16.4388 118.371 16.4388ZM123.204 9.55359H113.424C113.485 8.92627 113.65 8.3372 113.917 7.78638C114.184 7.23557 114.535 6.75743 114.97 6.35197C115.405 5.9465 115.913 5.62519 116.493 5.38804C117.074 5.15088 117.692 5.0323 118.348 5.0323C119.005 5.0323 119.616 5.15088 120.181 5.38804C120.746 5.62519 121.242 5.9465 121.669 6.35197C122.097 6.75743 122.444 7.23557 122.711 7.78638C122.979 8.3372 123.143 8.92627 123.204 9.55359Z" fill="black"/>
</svg>
