<svg width="163" height="17" viewBox="0 0 163 17" fill="none" xmlns="http://www.w3.org/2000/svg">
<path d="M6.33837 3.85398C7.54965 3.85398 8.62365 4.15266 9.56037 4.75002V4.12037H13.4849V15.8658H9.56037V15.2119C8.62365 15.8093 7.54965 16.108 6.33837 16.108C5.28859 16.108 4.31553 15.8375 3.41918 15.2967C2.52284 14.7558 1.81222 14.0172 1.28733 13.0808C0.762444 12.1444 0.5 11.1111 0.5 9.98097C0.5 8.83468 0.762444 7.79334 1.28733 6.85693C1.81222 5.92053 2.52284 5.18593 3.41918 4.65315C4.31553 4.12037 5.28859 3.85398 6.33837 3.85398ZM6.90625 7.31848C5.45025 7.31848 4.26993 8.4984 4.26993 9.95391C4.26993 11.4094 5.45025 12.5893 6.90625 12.5893C8.36224 12.5893 9.54256 11.4094 9.54256 9.95391C9.54256 8.4984 8.36224 7.31848 6.90625 7.31848ZM20.727 16.1322C21.7929 16.1322 22.77 15.9183 23.6582 15.4904C24.5465 15.0626 25.2612 14.4652 25.8022 13.6983C26.3433 12.9315 26.6541 12.0475 26.7349 11.0465H23.0284C22.9315 11.5793 22.6731 12.0072 22.2532 12.3301C21.8333 12.653 21.3245 12.8144 20.727 12.8144C19.9033 12.8144 19.2492 12.548 18.7647 12.0152C18.2802 11.4824 18.0379 10.8044 18.0379 9.98097C18.0379 9.15758 18.2802 8.48353 18.7647 7.95882C19.2492 7.43411 19.9033 7.17176 20.727 7.17176C21.3245 7.17176 21.8333 7.33321 22.2532 7.6561C22.6731 7.979 22.9315 8.40684 23.0284 8.93962H26.7349C26.6541 7.93864 26.3433 7.05471 25.8022 6.28782C25.2612 5.52094 24.5465 4.92358 23.6582 4.49574C22.77 4.0679 21.7929 3.85398 20.727 3.85398C19.4995 3.85398 18.4013 4.11633 17.4323 4.64104C16.4632 5.16575 15.7001 5.89631 15.143 6.83271C14.5858 7.76912 14.3072 8.81854 14.3072 9.98097C14.3072 11.1595 14.5858 12.217 15.143 13.1534C15.7001 14.0899 16.4632 14.8204 17.4323 15.3451C18.4013 15.8698 19.4995 16.1322 20.727 16.1322ZM33.7803 16.1322C34.8462 16.1322 35.8233 15.9183 36.7116 15.4904C37.5998 15.0626 38.3145 14.4652 38.8555 13.6983C39.3966 12.9315 39.7075 12.0475 39.7882 11.0465H36.0817C35.9848 11.5793 35.7264 12.0072 35.3065 12.3301C34.8866 12.653 34.3778 12.8144 33.7803 12.8144C32.9566 12.8144 32.3025 12.548 31.818 12.0152C31.3335 11.4824 31.0912 10.8044 31.0912 9.98097C31.0912 9.15758 31.3335 8.48353 31.818 7.95882C32.3025 7.43411 32.9566 7.17176 33.7803 7.17176C34.3778 7.17176 34.8866 7.33321 35.3065 7.6561C35.7264 7.979 35.9848 8.40684 36.0817 8.93962H39.7882C39.7075 7.93864 39.3966 7.05471 38.8555 6.28782C38.3145 5.52094 37.5998 4.92358 36.7116 4.49574C35.8233 4.0679 34.8462 3.85398 33.7803 3.85398C32.5528 3.85398 31.4546 4.11633 30.4856 4.64104C29.5166 5.16575 28.7535 5.89631 28.1963 6.83271C27.6391 7.76912 27.3605 8.81854 27.3605 9.98097C27.3605 11.1595 27.6391 12.217 28.1963 13.1534C28.7535 14.0899 29.5166 14.8204 30.4856 15.3451C31.4546 15.8698 32.5528 16.1322 33.7803 16.1322ZM46.8336 16.1322C48.2871 16.1322 49.5348 15.777 50.5765 15.0666C51.5953 14.3718 52.2472 13.4376 52.5322 12.264C52.5335 12.259 52.5396 12.234 52.5586 12.1011C52.5776 11.9681 52.5738 11.8415 52.5786 11.8201H48.8162C48.8122 11.8263 48.7819 11.922 48.7459 12.0206C48.711 12.1164 48.6546 12.2152 48.6505 12.2211C48.4753 12.4778 48.2411 12.6756 47.948 12.8144C47.6411 12.9597 47.2858 13.0324 46.882 13.0324C46.1714 13.0324 45.5941 12.8588 45.1499 12.5117C44.7058 12.1646 44.403 11.7085 44.2415 11.1434H52.5786C52.6409 10.6052 52.672 10.137 52.672 9.7388C52.672 8.57636 52.4095 7.55116 51.8846 6.66319C51.3597 5.77522 50.6411 5.08503 49.7286 4.59261C48.8161 4.10019 47.7945 3.85398 46.664 3.85398C45.4366 3.85398 44.3464 4.11633 43.3936 4.64104C42.4407 5.16575 41.7058 5.89227 41.189 6.8206C40.6722 7.74894 40.4138 8.80239 40.4138 9.98097C40.4138 11.1595 40.6803 12.217 41.2133 13.1534C41.7462 14.0899 42.5013 14.8204 43.4784 15.3451C44.4555 15.8698 45.5739 16.1322 46.8336 16.1322ZM44.193 8.84275C44.3485 8.17445 44.6551 7.65123 45.1128 7.27311C45.5705 6.89499 46.1449 6.70593 46.8358 6.70593C47.5095 6.70593 48.0622 6.89059 48.494 7.25992C48.9259 7.62925 49.2022 8.15686 49.3231 8.84275H44.193ZM59.0575 16.2291C60.6726 16.2291 61.9929 15.89 63.0184 15.2119C64.044 14.5338 64.5568 13.549 64.5568 12.2574C64.5568 10.3362 63.3374 9.14951 60.8987 8.69745L58.6942 8.33419C57.8866 8.18889 57.4829 7.88213 57.4829 7.41393C57.4829 7.17176 57.608 6.96994 57.8584 6.8085C58.1087 6.64705 58.4761 6.56632 58.9606 6.56632C59.5259 6.56632 59.9902 6.6753 60.3536 6.89326C60.717 7.11121 60.9148 7.43815 60.9471 7.87406H64.4356C64.3549 6.45331 63.7815 5.42003 62.7156 4.77424C61.6497 4.12844 60.39 3.80554 58.9364 3.80554C57.3537 3.80554 56.0859 4.15266 55.133 4.84689C54.1801 5.54112 53.7037 6.50174 53.7037 7.72876C53.7037 8.72974 54.0105 9.52488 54.6243 10.1142C55.238 10.7035 56.0778 11.0869 57.1437 11.2645L59.5178 11.6762C59.8893 11.7408 60.1719 11.8457 60.3657 11.991C60.5595 12.1363 60.6564 12.3058 60.6564 12.4996C60.6564 12.7579 60.507 12.9597 60.2083 13.105C59.9095 13.2503 59.5017 13.323 58.9849 13.323C58.355 13.323 57.8422 13.2019 57.4465 12.9597C57.0509 12.7175 56.8126 12.3462 56.7319 11.8457L53.2434 11.8215C53.3565 13.3068 53.9419 14.4128 54.9998 15.1393C56.0576 15.8658 57.4102 16.2291 59.0575 16.2291ZM70.9666 16.2291C72.5816 16.2291 73.9019 15.89 74.9275 15.2119C75.953 14.5338 76.4658 13.549 76.4658 12.2574C76.4658 10.3362 75.2464 9.14951 72.8077 8.69745L70.6032 8.33419C69.7957 8.18889 69.3919 7.88213 69.3919 7.41393C69.3919 7.17176 69.5171 6.96994 69.7674 6.8085C70.0177 6.64705 70.3852 6.56632 70.8697 6.56632C71.4349 6.56632 71.8993 6.6753 72.2626 6.89326C72.626 7.11121 72.8239 7.43815 72.8562 7.87406H76.3447C76.2639 6.45331 75.6906 5.42003 74.6246 4.77424C73.5587 4.12844 72.299 3.80554 70.8454 3.80554C69.2627 3.80554 67.9949 4.15266 67.042 4.84689C66.0891 5.54112 65.6127 6.50174 65.6127 7.72876C65.6127 8.72974 65.9196 9.52488 66.5333 10.1142C67.147 10.7035 67.9868 11.0869 69.0527 11.2645L71.4269 11.6762C71.7983 11.7408 72.0809 11.8457 72.2748 11.991C72.4686 12.1363 72.5655 12.3058 72.5655 12.4996C72.5655 12.7579 72.4161 12.9597 72.1173 13.105C71.8185 13.2503 71.4107 13.323 70.8939 13.323C70.264 13.323 69.7513 13.2019 69.3556 12.9597C68.9599 12.7175 68.7217 12.3462 68.6409 11.8457L65.1524 11.8215C65.2655 13.3068 65.8509 14.4128 66.9088 15.1393C67.9666 15.8658 69.3192 16.2291 70.9666 16.2291Z" fill="#1F1F1F"/>
<path d="M13.6644 0.500122H1.12695V2.38075H13.6644V0.500122Z" fill="#142744"/>
<path d="M79.8431 16.2737V10.2746C79.8431 9.56365 79.9505 8.9082 80.1653 8.30829C80.3801 7.70838 80.68 7.19735 81.0652 6.77519C81.4503 6.35304 81.9021 6.02346 82.4205 5.78646C82.9389 5.54946 83.5018 5.43096 84.1091 5.43096C84.6276 5.43096 85.1275 5.51983 85.6089 5.69758C86.0903 5.87533 86.5162 6.14196 86.8865 6.49746C87.2568 6.85296 87.5493 7.29363 87.7641 7.81948C87.9789 8.34532 88.0863 8.96374 88.0863 9.67474V16.2737H89.3083V9.23037C89.3083 8.4453 89.1713 7.74912 88.8973 7.1418C88.6232 6.53449 88.2529 6.01976 87.7863 5.5976C87.3197 5.17544 86.7828 4.85327 86.1755 4.63108C85.5682 4.4089 84.9386 4.2978 84.2869 4.2978C83.7388 4.2978 83.2315 4.37186 82.7649 4.51999C82.2983 4.66811 81.8761 4.86808 81.4984 5.1199C81.1207 5.37171 80.7948 5.65685 80.5208 5.97532C80.2468 6.29379 80.0209 6.63077 79.8431 6.98627V4.49777H78.6211V16.2737H79.8431ZM97.1597 16.4515C97.7374 16.4515 98.3003 16.37 98.8483 16.2071C99.3964 16.0441 99.9037 15.8182 100.37 15.5294C100.837 15.2405 101.263 14.8962 101.648 14.4962C102.033 14.0963 102.344 13.6519 102.581 13.1631L101.403 12.9631C100.974 13.6741 100.381 14.2444 99.626 14.674C98.8705 15.1035 98.0484 15.3183 97.1597 15.3183C96.5228 15.3183 95.9228 15.2072 95.36 14.985C94.7971 14.7628 94.3009 14.4518 93.8713 14.0518C93.4418 13.6519 93.0936 13.1742 92.827 12.6187C92.5604 12.0633 92.4049 11.4522 92.3604 10.7857H103.07C103.099 10.6376 103.111 10.4709 103.103 10.2858C103.096 10.1006 103.077 9.90434 103.048 9.69696C102.959 8.95634 102.751 8.25645 102.426 7.59729C102.1 6.93813 101.677 6.36415 101.159 5.87533C100.641 5.38652 100.041 5.0014 99.3593 4.71996C98.678 4.43852 97.9448 4.2978 97.1597 4.2978C96.3154 4.2978 95.5303 4.45704 94.8045 4.77551C94.0787 5.09397 93.4417 5.52724 92.8937 6.0753C92.3456 6.62337 91.9161 7.26401 91.605 7.99723C91.2939 8.73045 91.1384 9.51921 91.1384 10.3635C91.1384 11.2078 91.2939 11.9966 91.605 12.7298C91.9161 13.463 92.3419 14.1074 92.8826 14.6629C93.4232 15.2183 94.0602 15.6553 94.7934 15.9738C95.5266 16.2922 96.3154 16.4515 97.1597 16.4515ZM101.848 9.78584H92.3604C92.4197 9.17852 92.5789 8.60824 92.8381 8.07499C93.0974 7.54174 93.438 7.07885 93.8602 6.68632C94.2824 6.29379 94.7749 5.98272 95.3378 5.75313C95.9006 5.52354 96.5005 5.40874 97.1375 5.40874C97.7744 5.40874 98.3669 5.52354 98.915 5.75313C99.463 5.98272 99.9444 6.29379 100.359 6.68632C100.774 7.07885 101.111 7.54174 101.37 8.07499C101.629 8.60824 101.789 9.17852 101.848 9.78584ZM107.899 15.9849C108.773 16.5774 110.077 16.6588 111.81 16.2293V15.0517C110.462 15.422 109.459 15.4257 108.799 15.0628C108.14 14.6999 107.811 13.9185 107.811 12.7187V5.58649H111.854V4.49777H107.811V1.00942H106.611V4.49777H103.945V5.58649H106.611L106.589 12.7409C106.589 14.3111 107.026 15.3924 107.899 15.9849ZM118.439 16.2737L121.35 5.07546L124.238 16.2737H126.26L129.749 4.49777H128.482L125.26 15.6738L122.372 4.49777H120.328L117.417 15.6738L114.196 4.49777H112.929L116.417 16.2737H118.439ZM136.489 16.4515C137.333 16.4515 138.118 16.2922 138.844 15.9738C139.57 15.6553 140.207 15.2183 140.755 14.6629C141.303 14.1074 141.733 13.4593 142.044 12.7187C142.355 11.9781 142.51 11.193 142.51 10.3635C142.51 9.53402 142.355 8.75266 142.044 8.01944C141.733 7.28623 141.307 6.64558 140.766 6.09752C140.226 5.54946 139.589 5.11249 138.855 4.78661C138.122 4.46074 137.333 4.2978 136.489 4.2978C135.645 4.2978 134.856 4.45704 134.123 4.77551C133.39 5.09397 132.753 5.52724 132.212 6.0753C131.671 6.62337 131.245 7.26771 130.934 8.00834C130.623 8.74896 130.468 9.53402 130.468 10.3635C130.468 11.2078 130.623 11.9966 130.934 12.7298C131.245 13.463 131.671 14.1074 132.212 14.6629C132.753 15.2183 133.39 15.6553 134.123 15.9738C134.856 16.2922 135.645 16.4515 136.489 16.4515ZM136.489 15.2961C135.823 15.2961 135.197 15.1702 134.612 14.9184C134.027 14.6666 133.512 14.3185 133.067 13.8741C132.623 13.4297 132.275 12.9076 132.023 12.3077C131.771 11.7078 131.645 11.0597 131.645 10.3635C131.645 9.68215 131.771 9.04151 132.023 8.4416C132.275 7.84169 132.619 7.31955 133.056 6.87518C133.493 6.4308 134.004 6.07901 134.589 5.81979C135.174 5.56057 135.808 5.43096 136.489 5.43096C137.156 5.43096 137.785 5.56057 138.378 5.81979C138.97 6.07901 139.485 6.4308 139.922 6.87518C140.359 7.31955 140.703 7.84169 140.955 8.4416C141.207 9.04151 141.333 9.68215 141.333 10.3635C141.333 11.0449 141.207 11.6855 140.955 12.2854C140.703 12.8854 140.359 13.4075 139.922 13.8519C139.485 14.2962 138.974 14.648 138.389 14.9073C137.804 15.1665 137.17 15.2961 136.489 15.2961ZM145.563 16.2737V10.3857C145.563 9.5118 145.692 8.75266 145.951 8.10832C146.211 7.46398 146.57 6.93813 147.029 6.53079C147.488 6.12344 148.029 5.84941 148.651 5.70869C149.273 5.56797 149.947 5.57908 150.673 5.74202V4.45333C149.399 4.24596 148.321 4.39038 147.44 4.8866C146.559 5.38282 145.933 6.14196 145.563 7.16402V4.49777H144.34V16.2737H145.563ZM153.614 16.2737V13.5408L156.391 10.6524L160.968 16.2737H162.457L157.147 9.83027L162.19 4.49777H160.702L153.614 12.0077V0.720581H152.392V16.2737H153.614Z" fill="black"/>
</svg>
