<svg width="160" height="35" viewBox="0 0 160 35" fill="none" xmlns="http://www.w3.org/2000/svg">
<path d="M26.2494 0.994385H0V4.94008H26.2494V0.994385Z" fill="#1544D6"/>
<path d="M12.2236 8.0418C14.7596 8.0418 17.0082 8.66846 18.9694 9.92177V8.60071H27.1861V33.2435H18.9694V31.8716C17.0082 33.1249 14.7596 33.7516 12.2236 33.7516C10.0257 33.7516 7.98846 33.1842 6.11181 32.0494C4.23515 30.9147 2.74736 29.365 1.64841 27.4003C0.549471 25.4357 0 23.2678 0 20.8967C0 18.4917 0.549471 16.3069 1.64841 14.3422C2.74736 12.3776 4.23515 10.8363 6.11181 9.71853C7.98846 8.60071 10.0257 8.0418 12.2236 8.0418ZM13.4126 15.3106C10.3642 15.3106 7.89299 17.7862 7.89299 20.8399C7.89299 23.8937 10.3642 26.3692 13.4126 26.3692C16.4609 26.3692 18.9321 23.8937 18.9321 20.8399C18.9321 17.7862 16.4609 15.3106 13.4126 15.3106ZM42.3486 33.8024C44.5803 33.8024 46.626 33.3536 48.4857 32.4559C50.3455 31.5583 51.8417 30.305 52.9745 28.696C54.1072 27.087 54.7582 25.2325 54.9272 23.1323H47.167C46.9641 24.2501 46.4231 25.1478 45.5439 25.8252C44.6648 26.5027 43.5997 26.8414 42.3486 26.8414C40.6241 26.8414 39.2546 26.2825 38.2402 25.1647C37.2258 24.0469 36.7186 22.6242 36.7186 20.8967C36.7186 19.1692 37.2258 17.7549 38.2402 16.6541C39.2546 15.5532 40.6241 15.0028 42.3486 15.0028C43.5997 15.0028 44.6648 15.3415 45.5439 16.0189C46.4231 16.6964 46.9641 17.5941 47.167 18.7119H54.9272C54.7582 16.6117 54.1072 14.7572 52.9745 13.1482C51.8417 11.5392 50.3455 10.2859 48.4857 9.38827C46.626 8.49062 44.5803 8.0418 42.3486 8.0418C39.7787 8.0418 37.4794 8.59224 35.4506 9.69312C33.4218 10.794 31.8241 12.3268 30.6575 14.2914C29.4909 16.2561 28.9077 18.4578 28.9077 20.8967C28.9077 23.3694 29.4909 25.5881 30.6575 27.5528C31.8241 29.5174 33.4218 31.0502 35.4506 32.1511C37.4794 33.2519 39.7787 33.8024 42.3486 33.8024ZM69.6779 33.8024C71.9096 33.8024 73.9553 33.3536 75.8151 32.4559C77.6748 31.5583 79.1711 30.305 80.3038 28.696C81.4366 27.087 82.0875 25.2325 82.2566 23.1323H74.4964C74.2935 24.2501 73.7525 25.1478 72.8733 25.8252C71.9941 26.5027 70.929 26.8414 69.6779 26.8414C67.9534 26.8414 66.584 26.2825 65.5696 25.1647C64.5552 24.0469 64.0479 22.6242 64.0479 20.8967C64.0479 19.1692 64.5552 17.7549 65.5696 16.6541C66.584 15.5532 67.9534 15.0028 69.6779 15.0028C70.929 15.0028 71.9941 15.3415 72.8733 16.0189C73.7525 16.6964 74.2935 17.5941 74.4964 18.7119H82.2566C82.0875 16.6117 81.4366 14.7572 80.3038 13.1482C79.1711 11.5392 77.6748 10.2859 75.8151 9.38827C73.9553 8.49062 71.9096 8.0418 69.6779 8.0418C67.1081 8.0418 64.8088 8.59224 62.7799 9.69312C60.7511 10.794 59.1534 12.3268 57.9869 14.2914C56.8203 16.2561 56.237 18.4578 56.237 20.8967C56.237 23.3694 56.8203 25.5881 57.9869 27.5528C59.1534 29.5174 60.7511 31.0502 62.7799 32.1511C64.8088 33.2519 67.1081 33.8024 69.6779 33.8024ZM97.0073 33.8024C100.05 33.8024 102.663 33.0572 104.844 31.5668C106.977 30.109 108.342 28.149 108.938 25.6867C108.941 25.6761 108.954 25.6238 108.994 25.3449C109.033 25.0659 109.025 24.8002 109.035 24.7552H101.158C101.15 24.7683 101.086 24.9691 101.011 25.176C100.938 25.377 100.82 25.5843 100.811 25.5967C100.444 26.1353 99.9542 26.5502 99.3404 26.8414C98.6979 27.1463 97.954 27.2987 97.1087 27.2987C95.6209 27.2987 94.4121 26.9346 93.4822 26.2063C92.5523 25.478 91.9183 24.5211 91.5802 23.3356H109.035C109.166 22.2065 109.231 21.2241 109.231 20.3886C109.231 17.9497 108.681 15.7988 107.582 13.9357C106.484 12.0727 104.979 10.6246 103.068 9.5915C101.158 8.55837 99.0192 8.0418 96.6522 8.0418C94.0824 8.0418 91.8 8.59224 89.805 9.69312C87.81 10.794 86.2714 12.3183 85.1894 14.266C84.1074 16.2137 83.5664 18.4239 83.5664 20.8967C83.5664 23.3694 84.1243 25.5881 85.2401 27.5528C86.356 29.5174 87.9368 31.0502 89.9825 32.1511C92.0282 33.2519 94.3698 33.8024 97.0073 33.8024ZM91.4787 18.5086C91.8042 17.1065 92.4461 16.0087 93.4045 15.2154C94.3628 14.4221 95.5653 14.0254 97.0119 14.0254C98.4223 14.0254 99.5795 14.4128 100.484 15.1877C101.388 15.9626 101.966 17.0696 102.22 18.5086H91.4787ZM122.6 34.0056C125.982 34.0056 128.746 33.2943 130.893 31.8716C133.04 30.4489 134.114 28.3827 134.114 25.6728C134.114 21.6419 131.561 19.1522 126.455 18.2038L121.839 17.4416C120.149 17.1368 119.303 16.4932 119.303 15.5108C119.303 15.0028 119.565 14.5793 120.09 14.2406C120.614 13.9019 121.383 13.7325 122.397 13.7325C123.581 13.7325 124.553 13.9611 125.314 14.4184C126.075 14.8757 126.489 15.5617 126.556 16.4762H133.86C133.691 13.4954 132.491 11.3275 130.259 9.97258C128.027 8.61765 125.39 7.94019 122.347 7.94019C119.033 7.94019 116.378 8.66846 114.383 10.125C112.388 11.5816 111.391 13.597 111.391 16.1714C111.391 18.2715 112.033 19.9398 113.318 21.1761C114.603 22.4125 116.362 23.217 118.593 23.5896L123.564 24.4534C124.342 24.5889 124.933 24.809 125.339 25.1139C125.745 25.4188 125.948 25.7744 125.948 26.1809C125.948 26.7229 125.635 27.1463 125.009 27.4512C124.384 27.756 123.53 27.9084 122.448 27.9084C121.129 27.9084 120.056 27.6544 119.227 27.1463C118.399 26.6382 117.9 25.8591 117.731 24.809L110.427 24.7582C110.664 27.8746 111.89 30.1949 114.105 31.7192C116.319 33.2435 119.151 34.0056 122.6 34.0056ZM147.534 34.0056C150.915 34.0056 153.679 33.2943 155.827 31.8716C157.974 30.4489 159.047 28.3827 159.047 25.6728C159.047 21.6419 156.494 19.1522 151.388 18.2038L146.773 17.4416C145.082 17.1368 144.237 16.4932 144.237 15.5108C144.237 15.0028 144.499 14.5793 145.023 14.2406C145.547 13.9019 146.316 13.7325 147.331 13.7325C148.514 13.7325 149.486 13.9611 150.247 14.4184C151.008 14.8757 151.422 15.5617 151.49 16.4762H158.794C158.625 13.4954 157.424 11.3275 155.193 9.97258C152.961 8.61765 150.323 7.94019 147.28 7.94019C143.966 7.94019 141.312 8.66846 139.317 10.125C137.322 11.5816 136.325 13.597 136.325 16.1714C136.325 18.2715 136.967 19.9398 138.252 21.1761C139.537 22.4125 141.295 23.217 143.527 23.5896L148.497 24.4534C149.275 24.5889 149.867 24.809 150.273 25.1139C150.678 25.4188 150.881 25.7744 150.881 26.1809C150.881 26.7229 150.569 27.1463 149.943 27.4512C149.317 27.756 148.464 27.9084 147.382 27.9084C146.063 27.9084 144.989 27.6544 144.161 27.1463C143.332 26.6382 142.834 25.8591 142.665 24.809L135.361 24.7582C135.598 27.8746 136.823 30.1949 139.038 31.7192C141.253 33.2435 144.085 34.0056 147.534 34.0056Z" fill="#1F1F1F"/>
</svg>
