<svg width="143" height="30" viewBox="0 0 143 30" fill="none" xmlns="http://www.w3.org/2000/svg">
<g clip-path="url(#clip0)">
<path fill-rule="evenodd" clip-rule="evenodd" d="M44.8209 20.6194H48.9861C48.9535 17.809 48.9535 15.8865 48.9861 14.8519C49.0841 11.7318 49.0841 10.125 51.1561 10.125C53.228 10.125 53.2894 11.665 53.392 14.8519C53.4249 15.8752 53.4249 17.7977 53.392 20.6194H57.5215C57.5215 18.8245 57.5215 16.902 57.5215 14.8519C57.5215 11.7766 57.7916 10.125 59.7495 10.125C61.7074 10.125 61.8904 11.7433 61.8904 14.8519C61.8904 15.9223 61.8904 17.8448 61.8904 20.6194H66.0528C66.0528 17.2019 66.0528 14.7222 66.0528 13.1802C66.0528 12.1442 66.2821 8.32356 62.6951 6.53216C60.3037 5.33789 57.8843 5.68732 55.4368 7.58044C53.0454 5.6859 50.6463 5.33647 48.2396 6.53216C44.6294 8.32569 44.8209 12.0439 44.8209 13.1802C44.8209 14.4984 44.8209 16.9782 44.8209 20.6194Z" fill="black"/>
<path fill-rule="evenodd" clip-rule="evenodd" d="M68.5303 20.6194H72.6955C72.663 17.809 72.663 15.8865 72.6955 14.8519C72.7935 11.7318 72.7935 10.125 74.8655 10.125C76.9375 10.125 76.9988 11.665 77.1014 14.8519C77.1344 15.8752 77.1344 17.7977 77.1014 20.6194H81.231C81.231 18.8245 81.231 16.902 81.231 14.8519C81.231 11.7766 81.5011 10.125 83.459 10.125C85.4169 10.125 85.5999 11.7433 85.5999 14.8519C85.5999 15.9223 85.5999 17.8448 85.5999 20.6194H89.7623C89.7623 16.3506 89.7623 13.8709 89.7623 13.1802C89.7623 12.9801 89.9916 8.32356 86.4046 6.53216C84.0132 5.33789 81.5938 5.68732 79.1463 7.58044C76.7549 5.6859 74.3558 5.33647 71.9491 6.53216C68.3389 8.32569 68.5303 12.0439 68.5303 13.1802C68.5303 14.4896 68.5303 16.9694 68.5303 20.6194Z" fill="black"/>
<path d="M140.833 20.6191C142.03 20.6191 143 19.6459 143 18.4454C143 17.2449 142.03 16.2717 140.833 16.2717C139.637 16.2717 138.667 17.2449 138.667 18.4454C138.667 19.6459 139.637 20.6191 140.833 20.6191Z" fill="black"/>
<path fill-rule="evenodd" clip-rule="evenodd" d="M109.014 0.00012207H113.347V20.6192C110.954 20.6192 109.014 18.6791 109.014 16.2859V0.00012207Z" fill="black"/>
<path fill-rule="evenodd" clip-rule="evenodd" d="M112.419 7.0802V2.7328H119.476C119.476 5.1338 117.53 7.0802 115.129 7.0802H112.419Z" fill="black"/>
<path d="M119.476 15.6507H115.143V20.6192C117.536 20.6192 119.476 18.6791 119.476 16.2858V15.6507Z" fill="#0043EA"/>
<path fill-rule="evenodd" clip-rule="evenodd" d="M0 13.1666H4.20952V24.9804C4.20952 27.3052 2.32486 29.1899 0 29.1899" fill="black"/>
<path d="M35.2856 18.4521C38.1915 18.4521 40.5471 16.0856 40.5471 13.1665C40.5471 10.2474 38.1915 7.88092 35.2856 7.88092C32.3798 7.88092 30.0242 10.2474 30.0242 13.1665C30.0242 16.0856 32.3798 18.4521 35.2856 18.4521Z" stroke="black" stroke-width="4.33423"/>
<path d="M7.42869 18.4521C10.3345 18.4521 12.6902 16.0856 12.6902 13.1665C12.6902 10.2474 10.3345 7.88092 7.42869 7.88092C4.52287 7.88092 2.16724 10.2474 2.16724 13.1665C2.16724 16.0856 4.52287 18.4521 7.42869 18.4521Z" stroke="black" stroke-width="4.33423"/>
<path d="M99.4602 18.4521C102.366 18.4521 104.722 16.0856 104.722 13.1665C104.722 10.2474 102.366 7.88092 99.4602 7.88092C96.5544 7.88092 94.1987 10.2474 94.1987 13.1665C94.1987 16.0856 96.5544 18.4521 99.4602 18.4521Z" stroke="black" stroke-width="4.33423"/>
<path d="M129.175 18.4521C132.08 18.4521 134.436 16.0856 134.436 13.1665C134.436 10.2474 132.08 7.88092 129.175 7.88092C126.269 7.88092 123.913 10.2474 123.913 13.1665C123.913 16.0856 126.269 18.4521 129.175 18.4521Z" stroke="black" stroke-width="4.33423"/>
<path fill-rule="evenodd" clip-rule="evenodd" d="M17.127 20.7341H21.4873V5.93221C19.0792 5.93221 17.127 7.8844 17.127 10.2926V20.7341Z" fill="black"/>
<path fill-rule="evenodd" clip-rule="evenodd" d="M20.2331 8.45514L21.1994 16.7927C21.198 15.2459 21.1971 14.2017 21.1966 13.6601C21.1954 12.377 21.4565 11.5482 22.0451 11.1854C23.0209 10.5839 24.1305 10.3925 25.3741 10.6111L26.7647 6.64576C26.0999 6.28939 25.162 6.11066 23.9512 6.10957C22.1348 6.10794 21.5077 6.65684 20.5099 7.22599C19.8446 7.60542 19.7524 8.01514 20.2331 8.45514Z" fill="black"/>
</g>
<defs>
<clipPath id="clip0">
<rect width="143" height="29.1897" fill="white"/>
</clipPath>
</defs>
</svg>
